<svg xmlns="http://www.w3.org/2000/svg" width="24" height="24" viewBox="0 0 24 24" aria-hidden="true">
  <g fill="none">
    <path d="M12 11v3.6h5.9c-.3 1.9-2.1 5.4-5.9 5.4-3.6 0-6.6-3-6.6-6.6S8.4 6.8 12 6.8c2 0 3.3.8 4.1 1.6l2.8-2.7C17.3 3.7 15 2.7 12 2.7 6.9 2.7 2.7 6.9 2.7 12S6.9 21.3 12 21.3c6 0 9.3-4.2 9.3-10 0-.7-.1-1.2-.2-1.7H12z" fill="#4285F4"/>
    <path d="M3.2 7.6l3 2.2c.8-1.9 2.7-3 5-3 2 0 3.3.9 4.1 1.6l2.8-2.7C17.3 3.7 15 2.7 12 2.7 8 2.7 4.7 4.9 3.2 7.6z" fill="#EA4335"/>
    <path d="M12 21.3c3.3 0 6.1-2.2 7.1-5.3l-3.2-2.5c-.9 2.7-3.1 4.1-5.9 4.1-2.8 0-5.1-1.9-5.9-4.4l-3 2.3c1.5 3.1 4.8 5.8 10.9 5.8z" fill="#34A853"/>
    <path d="M3 14.9l3-2.3c-.2-.6-.3-1.3-.3-2 0-.7.1-1.4.3-2L3.2 7.6C2.7 8.6 2.4 9.8 2.4 12c0 1.1.2 2 .6 2.9z" fill="#FBBC05"/>
  </g>
</svg>
