<svg xmlns="http://www.w3.org/2000/svg" width="24" height="24" viewBox="0 0 24 24" aria-hidden="true">
  <path fill="#0866FF" d="M17.8 18.6c-1.6 0-2.8-1.7-4-3.5-.9-1.3-1.7-2.5-2.4-2.5-.6 0-1.4.9-2.4 2.5-1.2 1.9-2.4 3.5-4 3.5-2.4 0-3-2.7-3-4.1 0-3.5 2.6-7.1 5.9-7.1 1.9 0 3.2 1.1 4.4 2.9 1.3-1.8 2.6-2.9 4.4-2.9 3.3 0 5.9 3.6 5.9 7.1 0 1.4-.6 4.1-3 4.1zm-9.4-8.4c-1.8 0-3.3 2-3.3 4 0 .7.2 1.9 1 1.9.7 0 1.6-1.2 2.5-2.6.9-1.5 1.6-2.5 2.6-2.5s1.7 1 2.6 2.5c.9 1.4 1.8 2.6 2.5 2.6.8 0 1-1.2 1-1.9 0-2-1.5-4-3.3-4-1.2 0-2.1 1-3.1 2.5-1-1.5-1.9-2.5-3.1-2.5z"/>
</svg>
